Coordinates
version=1
nRows=8
nColumns=40
inDegrees=yes

Units are S.I. units (second, meters, Newtons, ...)
Angles are in degrees.

endheader
time	pelvis_tilt	pelvis_list	pelvis_rotation	pelvis_tx	pelvis_ty	pelvis_tz	hip_flexion_r	hip_adduction_r	hip_rotation_r	knee_angle_r	knee_angle_r_beta	ankle_angle_r	subtalar_angle_r	mtp_angle_r	hip_flexion_l	hip_adduction_l	hip_rotation_l	knee_angle_l	knee_angle_l_beta	ankle_angle_l	subtalar_angle_l	mtp_angle_l	lumbar_extension	lumbar_bending	lumbar_rotation	arm_flex_r	arm_add_r	arm_rot_r	elbow_flex_r	pro_sup_r	wrist_flex_r	wrist_dev_r	arm_flex_l	arm_add_l	arm_rot_l	elbow_flex_l	pro_sup_l	wrist_flex_l	wrist_dev_l
      8.46250000	     -4.61871638	     -5.70405895	      3.10632260	      0.98387841	      0.91581050	      0.44960339	      6.68270814	     -3.25045727	    -12.16068367	     37.70593263	     37.70593263	     14.74639173	     -9.86955054	     -5.35368831	     29.55988825	     -7.39396772	     -3.76083842	     29.51444300	     29.51444300	      8.55063584	    -10.44854863	      2.50079840	    -10.51087229	      3.97048282	      3.47610439	     50.68536726	    -12.64717939	      5.98133231	    120.99944894	     43.75997076	      0.00000000	      0.00000000	    -14.96276219	     -5.97192634	      2.65305530	     24.35321707	     45.37409274	      0.00000000	      0.00000000
      8.47400000	     -4.72916203	     -5.51252456	      2.80613713	      0.98264544	      0.91780707	      0.44724963	      8.76297995	     -4.04636782	    -12.08964857	     41.66020491	     41.66020491	     13.63655777	    -11.65871716	     -5.29318761	     28.65613072	     -7.26710539	     -4.54699449	     28.80048841	     28.80048841	      9.02611157	     -9.72766615	      2.27150358	    -10.57289094	      3.72933599	      3.28153033	     48.90700788	    -12.44573724	      6.37737440	    120.84549558	     43.75105973	      0.00000000	      0.00000000	    -13.96012978	     -6.12305446	      2.70851871	     24.71306765	     45.38552235	      0.00000000	      0.00000000
      8.48550000	     -4.88584208	     -5.35638625	      2.49377218	      0.98123151	      0.91966752	      0.44515525	     10.97942148	     -4.74064803	    -11.97176623	     45.56255412	     45.56255412	     12.62440464	    -13.67916564	     -4.92989653	     27.81811836	     -7.20776664	     -5.43249745	     28.07147792	     28.07147792	      9.40309292	     -8.88274604	      2.00199954	    -10.57208205	      3.51568615	      3.10490358	     46.93547667	    -12.32232653	      6.79549732	    120.53862793	     43.74476496	      0.00000000	      0.00000000	    -12.91342026	     -6.35140391	      2.72062381	     25.22434628	     45.40387737	      0.00000000	      0.00000000
      8.49700000	     -5.04673149	     -5.25519449	      2.19972173	      0.97978215	      0.92141856	      0.44324891	     13.21923742	     -5.32564407	    -11.86463870	     49.30331912	     49.30331912	     11.80486795	    -15.58700691	     -4.22376246	     26.98437550	     -7.20347717	     -6.28845678	     27.32118989	     27.32118989	      9.78003263	     -7.87898573	      1.64590462	    -10.54451800	      3.34957914	      2.93785652	     44.83419310	    -12.31337685	      7.18781144	    120.06885815	     43.74485305	      0.00000000	      0.00000000	    -11.87054396	     -6.63261305	      2.70300215	     25.89671206	     45.42625111	      0.00000000	      0.00000000
      8.50850000	     -5.14619166	     -5.10307336	      1.93810393	      0.97831456	      0.92307158	      0.44138672	     15.36668900	     -6.03297663	    -11.94180097	     52.83495929	     52.83495929	     11.22254962	    -17.03779249	     -3.49775938	     26.11876020	     -7.12699940	     -7.14623904	     26.62099081	     26.62099081	     10.11093704	     -6.97059988	      1.32805404	    -10.57409649	      3.15167957	      2.71889683	     42.63617421	    -12.24894217	      7.63062525	    119.44716319	     43.74584547	      0.00000000	      0.00000000	    -10.69405013	     -6.98548148	      2.65770157	     26.65888590	     45.45435216	      0.00000000	      0.00000000
      8.52000000	     -5.23185891	     -4.94651375	      1.70724994	      0.97682595	      0.92459183	      0.43954637	     17.47210424	     -6.79292220	    -12.09917702	     56.12076314	     56.12076314	     10.86996993	    -17.97194233	     -2.66460745	     25.25848536	     -7.01913683	     -7.95497762	     25.93594005	     25.93594005	     10.41071992	     -6.06394038	      1.01427223	    -10.59760523	      2.97641352	      2.45689806	     40.34216616	    -12.25518977	      8.05719195	    118.65440453	     43.75172254	      0.00000000	      0.00000000	     -9.49946821	     -7.38649404	      2.59081074	     27.48724791	     45.48529663	      0.00000000	      0.00000000
      8.53150000	     -5.24492102	     -4.95796340	      1.39078155	      0.97546387	      0.92595119	      0.43825748	     19.67580319	     -7.14458582	    -11.92204830	     59.48334387	     59.48334387	     12.56973909	    -18.06431407	      3.94049264	     24.35763006	     -7.31732920	     -9.34084390	     25.36528982	     25.36528982	     10.61538290	     -4.17831965	     -0.46646212	    -10.64215321	      2.89755024	      2.58684036	     37.91105755	    -12.65853307	      7.80999911	    117.15645925	     43.83733438	      0.00000000	      0.00000000	     -8.84881400	     -8.05927593	      2.55786419	     30.02551537	     45.50708009	      0.00000000	      0.00000000
      8.54300000	     -5.36831037	     -4.76236742	      1.22541990	      0.97390861	      0.92702984	      0.43644041	     21.83872151	     -7.89419717	    -11.96207311	     62.29087007	     62.29087007	     13.40436600	    -18.11623758	      7.45360087	     23.55419369	     -7.00671782	     -9.72694832	     24.60708919	     24.60708919	     10.64214442	     -3.97090419	     -1.01329807	    -10.60525035	      2.71221665	      1.88174775	     35.63647977	    -12.44007157	      8.36635392	    115.94634356	     43.91035625	      0.00000000	      0.00000000	     -7.90873404	     -8.65024296	      3.00855227	     31.21945124	     45.48737744	      0.00000000	      0.00000000
